<?xml version="1.0" encoding="UTF-8"?>
<svg width="26px" height="25px" viewBox="0 0 26 25" version="1.1" xmlns="http://www.w3.org/2000/svg" xmlns:xlink="http://www.w3.org/1999/xlink">
    <!-- Generator: Sketch 51.2 (57519) - http://www.bohemiancoding.com/sketch -->
    <title>Group</title>
    <desc>Created with Sketch.</desc>
    <defs></defs>
    <g id="Page-1" stroke="none" stroke-width="1" fill="none" fill-rule="evenodd">
        <g id="Group" fill="#D82534">
            <path d="M12.75,23.797 L12.75,24.297 C16.26,24.297 19.45,22.943 21.76,20.748 C24.07,18.554 25.5,15.509 25.5,12.149 C25.5,8.788 24.07,5.743 21.76,3.549 C19.45,1.354 16.26,0 12.75,0 C9.24,0 6.05,1.354 3.75,3.549 C1.44,5.743 0,8.788 0,12.149 C0,15.509 1.44,18.554 3.75,20.748 C6.05,22.943 9.24,24.297 12.75,24.297 L12.75,23.297 C9.5,23.297 6.56,22.044 4.43,20.023 C2.31,18.001 1,15.221 1,12.149 C1,9.076 2.31,6.296 4.43,4.274 C6.56,2.253 9.5,1 12.75,1 C16.01,1 18.94,2.253 21.07,4.274 C23.19,6.296 24.5,9.076 24.5,12.149 C24.5,15.221 23.19,18.001 21.07,20.023 C18.94,22.044 16.01,23.297 12.75,23.297 L12.75,23.797" id="Fill-106"></path>
            <path d="M7.83,11.642 C7.83,11.642 6.97,12.154 7.83,12.666 L14.99,16.939 C14.99,16.939 15.85,17.451 15.85,16.451 L15.85,7.857 C15.85,7.857 15.85,6.857 14.99,7.369 L7.83,11.642" id="Fill-107"></path>
        </g>
    </g>
</svg>