<?xml version="1.0" encoding="UTF-8"?>
<svg width="26px" height="25px" viewBox="0 0 26 25" version="1.1" xmlns="http://www.w3.org/2000/svg" xmlns:xlink="http://www.w3.org/1999/xlink">
    <!-- Generator: Sketch 51.2 (57519) - http://www.bohemiancoding.com/sketch -->
    <title>Group</title>
    <desc>Created with Sketch.</desc>
    <defs></defs>
    <g id="Page-1" stroke="none" stroke-width="1" fill="none" fill-rule="evenodd">
        <g id="Group" fill="#D82534">
            <path d="M12.75,0 C9.24,0 6.05,1.354 3.75,3.549 C1.44,5.743 0,8.788 0,12.149 C0,15.509 1.44,18.554 3.75,20.748 C6.05,22.943 9.24,24.297 12.75,24.297 C16.26,24.297 19.45,22.943 21.76,20.748 C24.07,18.554 25.5,15.509 25.5,12.149 C25.5,8.788 24.07,5.743 21.76,3.549 C19.45,1.354 16.26,0 12.75,0 L12.75,1 C16.01,1 18.94,2.253 21.07,4.274 C23.19,6.296 24.5,9.076 24.5,12.149 C24.5,15.221 23.19,18.001 21.07,20.023 C18.94,22.044 16.01,23.297 12.75,23.297 C9.5,23.297 6.56,22.044 4.43,20.023 C2.31,18.001 1,15.221 1,12.149 C1,9.076 2.31,6.296 4.43,4.274 C6.56,2.253 9.5,1 12.75,1 L12.75,0.5 L12.75,0 Z" id="Fill-108"></path>
            <path d="M17.67,12.656 C17.67,12.656 18.53,12.143 17.67,11.631 L10.52,7.359 C10.52,7.359 9.66,6.846 9.66,7.846 L9.66,16.441 C9.66,16.441 9.66,17.441 10.52,16.928 L17.67,12.656" id="Fill-109"></path>
        </g>
    </g>
</svg>